<svg width="82" height="80" viewBox="0 0 82 80" fill="none" xmlns="http://www.w3.org/2000/svg">
<path d="M5.783 43.2857C4.63156 43.9774 3.67828 44.9549 3.01551 46.1232C2.35274 47.2916 2.00294 48.6114 2 49.9547V62.5907C2.00294 63.9339 2.35274 65.2537 3.01551 66.4221C3.67828 67.5904 4.63156 68.5679 5.783 69.2597L17.483 76.2797C18.6961 77.0085 20.0847 77.3936 21.5 77.3936C22.9153 77.3936 24.3039 77.0085 25.517 76.2797L41 66.9977V45.5477L21.5 33.8477L5.783 43.2857Z" stroke="#0A3F62" stroke-width="4" stroke-linecap="round" stroke-linejoin="round"/>
<path d="M21.5002 57.2498L3.01416 46.1348" stroke="#0A3F62" stroke-width="4" stroke-linecap="round" stroke-linejoin="round"/>
<path d="M21.5 57.2469L41 45.5469" stroke="#0A3F62" stroke-width="4" stroke-linecap="round" stroke-linejoin="round"/>
<path d="M21.5 57.248V77.411" stroke="#0A3F62" stroke-width="4" stroke-linecap="round" stroke-linejoin="round"/>
<path d="M41 45.5477V66.9977L56.483 76.2797C57.6961 77.0085 59.0847 77.3936 60.5 77.3936C61.9153 77.3936 63.3039 77.0085 64.517 76.2797L76.217 69.2597C77.3684 68.5679 78.3217 67.5904 78.9845 66.4221C79.6473 65.2537 79.9971 63.9339 80 62.5907V49.9547C79.9971 48.6114 79.6473 47.2916 78.9845 46.1232C78.3217 44.9549 77.3684 43.9774 76.217 43.2857L60.5 33.8477L41 45.5477Z" stroke="#0A3F62" stroke-width="4" stroke-linecap="round" stroke-linejoin="round"/>
<path d="M60.5 57.2469L41 45.5469" stroke="#0A3F62" stroke-width="4" stroke-linecap="round" stroke-linejoin="round"/>
<path d="M60.5 57.2498L78.986 46.1348" stroke="#0A3F62" stroke-width="4" stroke-linecap="round" stroke-linejoin="round"/>
<path d="M60.5 57.248V77.411" stroke="#0A3F62" stroke-width="4" stroke-linecap="round" stroke-linejoin="round"/>
<path d="M25.283 10.1339C24.1316 10.8257 23.1783 11.8031 22.5155 12.9715C21.8527 14.1399 21.5029 15.4596 21.5 16.8029V33.8459L41 45.5459L60.5 33.8459V16.8029C60.4971 15.4596 60.1473 14.1399 59.4845 12.9715C58.8217 11.8031 57.8684 10.8257 56.717 10.1339L45.017 3.11392C43.8039 2.38506 42.4153 2 41 2C39.5847 2 38.1961 2.38506 36.983 3.11392L25.283 10.1339Z" stroke="#0A3F62" stroke-width="4" stroke-linecap="round" stroke-linejoin="round"/>
<path d="M41.0002 24.0974L22.5142 12.9824" stroke="#0A3F62" stroke-width="4" stroke-linecap="round" stroke-linejoin="round"/>
<path d="M41 24.0974L59.486 12.9824" stroke="#0A3F62" stroke-width="4" stroke-linecap="round" stroke-linejoin="round"/>
<path d="M41 45.5477V24.0977" stroke="#0A3F62" stroke-width="4" stroke-linecap="round" stroke-linejoin="round"/>
</svg>
