<svg width="82" height="81" viewBox="0 0 82 81" fill="none" xmlns="http://www.w3.org/2000/svg">
<path d="M74.2375 62.4666V25.2667C74.2375 23.0742 73.3621 20.9715 71.8038 19.4212C70.2454 17.8709 68.1319 17 65.9281 17H16.0719C13.8681 17 11.7546 17.8709 10.1962 19.4212C8.63794 20.9715 7.76249 23.0742 7.76249 25.2667V62.4666M74.2375 62.4666H7.76249M74.2375 62.4666L79.5555 73.0066C79.8758 73.6389 80.0275 74.3425 79.9959 75.0499C79.9644 75.7573 79.7507 76.4448 79.3753 77.0464C78.9999 77.6481 78.4755 78.1437 77.8523 78.4857C77.2291 78.8278 76.528 79.0048 75.8163 78.9999H6.1837C5.47196 79.0048 4.77088 78.8278 4.14768 78.4857C3.52447 78.1437 3.00005 77.6481 2.6247 77.0464C2.24934 76.4448 2.03564 75.7573 2.00409 75.0499C1.97253 74.3425 2.12418 73.6389 2.44448 73.0066L7.76249 62.4666" stroke="#0A3F62" stroke-width="4" stroke-linecap="round" stroke-linejoin="round"/>
<path d="M41 14C43.2091 14 45 12.2091 45 10C45 7.79086 43.2091 6 41 6C38.7909 6 37 7.79086 37 10C37 12.2091 38.7909 14 41 14Z" stroke="#0A3F62" stroke-width="4" stroke-linecap="round" stroke-linejoin="round"/>
<path d="M23 42.0005L39.04 13.4805" stroke="#0A3F62" stroke-width="4" stroke-linecap="round" stroke-linejoin="round"/>
<path d="M42.98 13.4805L46.84 20.3605" stroke="#0A3F62" stroke-width="4" stroke-linecap="round" stroke-linejoin="round"/>
<path d="M55 24C47.26 32 34.74 32 27 24" stroke="#0A3F62" stroke-width="4" stroke-linecap="round" stroke-linejoin="round"/>
<path d="M58.9999 42.0003L54.6799 34.3203" stroke="#0A3F62" stroke-width="4" stroke-linecap="round" stroke-linejoin="round"/>
</svg>
