<svg width="84" height="84" viewBox="0 0 84 84" fill="none" xmlns="http://www.w3.org/2000/svg">
<path d="M52.5 7H31.5C29.567 7 28 8.567 28 10.5V17.5C28 19.433 29.567 21 31.5 21H52.5C54.433 21 56 19.433 56 17.5V10.5C56 8.567 54.433 7 52.5 7Z" stroke="#0A3F62" stroke-width="4" stroke-linecap="round" stroke-linejoin="round"/>
<path d="M56 14H63C64.8565 14 66.637 14.7375 67.9497 16.0503C69.2625 17.363 70 19.1435 70 21V70C70 71.8565 69.2625 73.637 67.9497 74.9497C66.637 76.2625 64.8565 77 63 77H21C19.1435 77 17.363 76.2625 16.0503 74.9497C14.7375 73.637 14 71.8565 14 70V21C14 19.1435 14.7375 17.363 16.0503 16.0503C17.363 14.7375 19.1435 14 21 14H28" stroke="#0A3F62" stroke-width="4" stroke-linecap="round" stroke-linejoin="round"/>
<path d="M31.5 49L38.5 56L52.5 42" stroke="#0A3F62" stroke-width="4" stroke-linecap="round" stroke-linejoin="round"/>
</svg>
