<svg width="74" height="67" viewBox="0 0 74 67" fill="none" xmlns="http://www.w3.org/2000/svg">
<path d="M47.5 33.5H30" stroke="#0A3F62" stroke-width="4" stroke-linecap="round" stroke-linejoin="round"/>
<path d="M47.5 19.5H30" stroke="#0A3F62" stroke-width="4" stroke-linecap="round" stroke-linejoin="round"/>
<path d="M61.5 51V9C61.5 7.14348 60.7625 5.36301 59.4497 4.05025C58.137 2.7375 56.3565 2 54.5 2H9" stroke="#0A3F62" stroke-width="4" stroke-linecap="round" stroke-linejoin="round"/>
<path d="M23 65H65C66.8565 65 68.637 64.2625 69.9497 62.9497C71.2625 61.637 72 59.8565 72 58V54.5C72 53.5717 71.6313 52.6815 70.9749 52.0251C70.3185 51.3687 69.4283 51 68.5 51H33.5C32.5717 51 31.6815 51.3687 31.0251 52.0251C30.3687 52.6815 30 53.5717 30 54.5V58C30 59.8565 29.2625 61.637 27.9497 62.9497C26.637 64.2625 24.8565 65 23 65ZM23 65C21.1435 65 19.363 64.2625 18.0503 62.9497C16.7375 61.637 16 59.8565 16 58V9C16 7.14348 15.2625 5.36301 13.9497 4.05025C12.637 2.7375 10.8565 2 9 2C7.14348 2 5.36301 2.7375 4.05025 4.05025C2.7375 5.36301 2 7.14348 2 9V16C2 16.9283 2.36875 17.8185 3.02513 18.4749C3.6815 19.1313 4.57174 19.5 5.5 19.5H16" stroke="#0A3F62" stroke-width="4" stroke-linecap="round" stroke-linejoin="round"/>
</svg>
