<svg width="90" height="44" viewBox="0 0 90 44" fill="none" xmlns="http://www.w3.org/2000/svg">
<path d="M44.9998 24.2222C51.1363 24.2222 56.1109 19.2476 56.1109 13.1111C56.1109 6.97461 51.1363 2 44.9998 2C38.8633 2 33.8887 6.97461 33.8887 13.1111C33.8887 19.2476 38.8633 24.2222 44.9998 24.2222Z" stroke="#0A3F62" stroke-width="4" stroke-linecap="round" stroke-linejoin="round"/>
<path d="M62.7777 42.0004C62.7777 37.2855 60.9047 32.7636 57.5707 29.4296C54.2368 26.0957 49.7149 24.2227 44.9999 24.2227C40.285 24.2227 35.7631 26.0957 32.4292 29.4296C29.0952 32.7636 27.2222 37.2855 27.2222 42.0004" stroke="#0A3F62" stroke-width="4" stroke-linecap="round" stroke-linejoin="round"/>
<path d="M73.889 18.6667C78.4914 18.6667 82.2223 14.9357 82.2223 10.3333C82.2223 5.73096 78.4914 2 73.889 2C69.2866 2 65.5557 5.73096 65.5557 10.3333C65.5557 14.9357 69.2866 18.6667 73.889 18.6667Z" stroke="#0A3F62" stroke-width="4" stroke-linecap="round" stroke-linejoin="round"/>
<path d="M87.2223 31.9993C87.2223 28.4631 85.8176 25.0717 83.3171 22.5713C80.8166 20.0708 77.4252 18.666 73.889 18.666C70.3528 18.666 66.9614 20.0708 64.4609 22.5713C61.9604 25.0717 60.5557 28.4631 60.5557 31.9993" stroke="#0A3F62" stroke-width="4" stroke-linecap="round" stroke-linejoin="round"/>
<path d="M16.1112 18.6667C20.7135 18.6667 24.4445 14.9357 24.4445 10.3333C24.4445 5.73096 20.7135 2 16.1112 2C11.5088 2 7.77783 5.73096 7.77783 10.3333C7.77783 14.9357 11.5088 18.6667 16.1112 18.6667Z" stroke="#0A3F62" stroke-width="4" stroke-linecap="round" stroke-linejoin="round"/>
<path d="M29.4445 31.9993C29.4445 28.4631 28.0397 25.0717 25.5393 22.5713C23.0388 20.0708 19.6474 18.666 16.1112 18.666C12.5749 18.666 9.18356 20.0708 6.68308 22.5713C4.18259 25.0717 2.77783 28.4631 2.77783 31.9993" stroke="#0A3F62" stroke-width="4" stroke-linecap="round" stroke-linejoin="round"/>
</svg>
