<svg width="66" height="66" viewBox="0 0 66 66" fill="none" xmlns="http://www.w3.org/2000/svg">
<path d="M33.0002 42.2992C38.1364 42.2992 42.3002 38.1355 42.3002 32.9992C42.3002 27.863 38.1364 23.6992 33.0002 23.6992C27.8639 23.6992 23.7002 27.863 23.7002 32.9992C23.7002 38.1355 27.8639 42.2992 33.0002 42.2992Z" stroke="#0A3F62" stroke-width="4" stroke-linecap="round" stroke-linejoin="round"/>
<path d="M9.75 26.8H8.2C6.55566 26.8 4.97866 26.1468 3.81594 24.9841C2.65321 23.8213 2 22.2443 2 20.6V8.2C2 6.55566 2.65321 4.97866 3.81594 3.81594C4.97866 2.65321 6.55566 2 8.2 2H57.8C59.4443 2 61.0213 2.65321 62.1841 3.81594C63.3468 4.97866 64 6.55566 64 8.2V20.6C64 22.2443 63.3468 23.8213 62.1841 24.9841C61.0213 26.1468 59.4443 26.8 57.8 26.8H56.25" stroke="#0A3F62" stroke-width="4" stroke-linecap="round" stroke-linejoin="round"/>
<path d="M9.75 39.1992H8.2C6.55566 39.1992 4.97866 39.8524 3.81594 41.0152C2.65321 42.1779 2 43.7549 2 45.3992V57.7992C2 59.4436 2.65321 61.0206 3.81594 62.1833C4.97866 63.346 6.55566 63.9992 8.2 63.9992H57.8C59.4443 63.9992 61.0213 63.346 62.1841 62.1833C63.3468 61.0206 64 59.4436 64 57.7992V45.3992C64 43.7549 63.3468 42.1779 62.1841 41.0152C61.0213 39.8524 59.4443 39.1992 57.8 39.1992H56.25" stroke="#0A3F62" stroke-width="4" stroke-linecap="round" stroke-linejoin="round"/>
<path d="M14.3999 14.4004H14.4309" stroke="#0A3F62" stroke-width="4" stroke-linecap="round" stroke-linejoin="round"/>
<path d="M14.3999 51.5996H14.4309" stroke="#0A3F62" stroke-width="4" stroke-linecap="round" stroke-linejoin="round"/>
<path d="M44.4702 37.3402L41.6802 36.4102" stroke="#0A3F62" stroke-width="4" stroke-linecap="round" stroke-linejoin="round"/>
<path d="M24.3198 29.5902L21.5298 28.6602" stroke="#0A3F62" stroke-width="4" stroke-linecap="round" stroke-linejoin="round"/>
<path d="M28.6606 44.4716L29.5906 41.6816" stroke="#0A3F62" stroke-width="4" stroke-linecap="round" stroke-linejoin="round"/>
<path d="M37.9602 44.4672L36.7202 41.3672" stroke="#0A3F62" stroke-width="4" stroke-linecap="round" stroke-linejoin="round"/>
<path d="M29.28 24.6332L28.04 21.5332" stroke="#0A3F62" stroke-width="4" stroke-linecap="round" stroke-linejoin="round"/>
<path d="M21.5298 37.9568L24.6298 36.7168" stroke="#0A3F62" stroke-width="4" stroke-linecap="round" stroke-linejoin="round"/>
<path d="M41.3701 29.283L44.4701 28.043" stroke="#0A3F62" stroke-width="4" stroke-linecap="round" stroke-linejoin="round"/>
<path d="M37.3406 21.5332L36.4106 24.3232" stroke="#0A3F62" stroke-width="4" stroke-linecap="round" stroke-linejoin="round"/>
</svg>
