<svg width="2142" height="2110" viewBox="0 0 2142 2110" fill="none" xmlns="http://www.w3.org/2000/svg">
<path d="M2141.43 1020.62C2140.28 979.473 2136.33 938.795 2130.34 898.98L1918.35 863.854L1846.5 663.32L1987.75 501.408C1944.9 430.127 1893.93 364.544 1836.31 305.521L1644.11 401.994L1467.89 282.2L1486.94 67.8867C1413.85 37.0796 1336.57 13.9023 1256.35 0L1156.48 190.704L943.356 195.701L833.883 10.2828C751.953 28.9357 673.664 56.7402 600.189 92.8327L631.578 305.665L462.206 435.207L264.838 350.025C210.657 412.009 163.408 480.348 124.593 554.014L274.794 707.536L214.298 911.73L4.50561 958.99C0.741322 1001.23 -0.883696 1044.42 0.473916 1088.29C1.95495 1128.33 5.55467 1167.59 10.9851 1206.31L223.061 1242.03L294.253 1442.79L152.074 1604.31C195.065 1675.64 245.811 1741.94 303.448 1801.13L496.043 1705.27L671.916 1825.58L651.984 2039.93C727.413 2071.83 806.937 2095.87 889.648 2110L988.939 1918.84L1202.04 1912.96L1311.87 2098.13C1393.73 2079.11 1471.9 2050.89 1545.33 2014.64L1513.33 1801.93L1682.12 1671.65L1879.7 1756.29C1933.9 1693.88 1981.02 1625.44 2019.53 1551.85L1868.45 1398.93L1928.2 1194.14L2138.12 1146.55C2141.47 1105.01 2142.89 1062.97 2141.43 1020.62ZM1387.67 1414.95C1188.8 1589.59 885.534 1570.98 710.073 1371.14C535.579 1171.51 554.935 868.687 754.422 694.189C953.065 518.682 1256.51 538.179 1431.36 737.253C1607.13 936.759 1586.97 1240.22 1387.67 1414.95Z" fill="#F5F5F5"/>
</svg>
