<svg width="1936" height="1906" viewBox="0 0 1936 1906" fill="none" xmlns="http://www.w3.org/2000/svg">
<path d="M1935.48 921.948C1934.44 884.775 1930.87 848.03 1925.46 812.064L1733.86 780.334L1668.92 599.188L1796.58 452.93C1757.86 388.542 1711.79 329.299 1659.71 275.983L1485.99 363.128L1326.72 254.916L1343.93 61.3233C1277.88 33.4947 1208.03 12.5582 1135.52 0L1045.26 172.266L852.632 176.78L753.687 9.28859C679.637 26.1381 608.877 51.2544 542.467 83.8574L570.838 276.113L417.755 393.13L239.368 316.184C190.398 372.175 147.693 433.907 112.61 500.451L248.366 639.129L193.688 823.582L4.0723 866.272C0.670028 904.43 -0.79871 943.442 0.428338 983.067C1.76694 1019.24 5.02047 1054.7 9.92866 1089.68L201.608 1121.95L265.954 1303.3L137.449 1449.21C176.305 1513.63 222.171 1573.52 274.265 1626.99L448.338 1540.4L607.297 1649.08L589.281 1842.71C657.457 1871.52 729.332 1893.24 804.089 1906L893.831 1733.33L1086.44 1728.01L1185.7 1895.28C1259.7 1878.1 1330.34 1852.61 1396.72 1819.86L1367.79 1627.71L1520.35 1510.03L1698.92 1586.49C1747.91 1530.11 1790.51 1468.28 1825.31 1401.82L1688.75 1263.68L1742.76 1078.68L1932.49 1035.7C1935.52 998.17 1936.8 960.199 1935.48 921.948ZM1254.21 1278.15C1074.47 1435.9 800.371 1419.09 641.784 1238.58C484.071 1058.25 501.566 784.7 681.868 627.073C861.407 468.535 1135.67 486.146 1293.7 665.973C1452.57 846.19 1434.35 1120.32 1254.21 1278.15Z" fill="#F5F5F5"/>
</svg>
