<svg width="337" height="332" viewBox="0 0 337 332" fill="none" xmlns="http://www.w3.org/2000/svg">
<path d="M336.91 160.591C336.729 154.116 336.107 147.716 335.166 141.451L301.813 135.924L290.509 104.371L312.732 78.8944C305.991 67.6788 297.971 57.3595 288.907 48.0725L258.667 63.2521L230.942 44.403L233.939 10.6817C222.441 5.83433 210.282 2.18747 197.661 0L181.949 30.0065L148.418 30.7928L131.194 1.61795C118.305 4.55291 105.987 8.92785 94.4274 14.6068L99.366 48.0952L72.7187 68.4781L41.6669 55.075C33.1426 64.828 25.7089 75.5809 19.6021 87.1719L43.2332 111.328L33.7154 143.457L0.708866 150.893C0.116632 157.54 -0.139032 164.335 0.074561 171.237C0.307571 177.538 0.873914 183.715 1.72828 189.808L35.094 195.429L46.2947 227.018L23.9257 252.432C30.6895 263.655 38.6733 274.087 47.7413 283.4L78.0423 268.318L105.712 287.247L102.576 320.975C114.444 325.994 126.955 329.777 139.968 332L155.589 301.922L189.117 300.997L206.395 330.133C219.276 327.14 231.573 322.7 243.127 316.995L238.091 283.526L264.648 263.027L295.732 276.346C304.259 266.525 311.674 255.756 317.732 244.178L293.962 220.116L303.363 187.892L336.389 180.405C336.916 173.868 337.14 167.254 336.91 160.591ZM218.321 222.636C187.033 250.116 139.321 247.187 111.715 215.744C84.2624 184.333 87.3077 136.684 118.693 109.228C149.945 81.6126 197.686 84.6802 225.195 116.004C252.848 147.395 249.677 195.144 218.321 222.636Z" fill="#F5F5F5"/>
</svg>
