<svg width="49" height="49" viewBox="0 0 49 49" fill="none" xmlns="http://www.w3.org/2000/svg">
<path d="M48.9715 37.0145C48.5346 40.3343 46.9042 43.3816 44.3848 45.5873C41.8653 47.7929 38.6291 49.006 35.2806 49C15.8273 49 2.21696e-05 33.1728 2.21696e-05 13.7196C-0.00598038 10.3712 1.20713 7.13501 3.41277 4.61558C5.61841 2.09616 8.66575 0.46576 11.9856 0.0289045C12.8251 -0.0736022 13.6753 0.0981468 14.4092 0.518513C15.1431 0.93888 15.7213 1.58532 16.0576 2.36133L21.2321 13.9132V13.9426C21.4896 14.5366 21.5959 15.1851 21.5416 15.8303C21.4873 16.4754 21.2741 17.097 20.9209 17.6397C20.8768 17.7058 20.8303 17.7671 20.7813 17.8283L15.6803 23.875C17.5154 27.6039 21.4158 31.4701 25.1938 33.31L31.1572 28.236C31.2158 28.1868 31.2771 28.141 31.341 28.0988C31.8831 27.7372 32.5069 27.5165 33.1559 27.4566C33.8048 27.3967 34.4585 27.4995 35.0577 27.7558L35.0895 27.7705L46.6317 32.9425C47.4091 33.2776 48.0571 33.8554 48.4788 34.5893C48.9006 35.3233 49.0734 36.1741 48.9715 37.0145Z" fill="#196E3D"/>
</svg>