<svg width="61" height="61" viewBox="0 0 61 61" fill="none" xmlns="http://www.w3.org/2000/svg">
<path d="M60.9645 46.0792C60.4206 50.2121 58.3909 54.0057 55.2545 56.7515C52.118 59.4973 48.0893 61.0074 43.9208 61C19.7034 61 2.75988e-05 41.2968 2.75988e-05 17.0795C-0.00744497 12.911 1.50275 8.88236 4.24855 5.74593C6.99434 2.6095 10.788 0.579824 14.9209 0.0359832C15.966 -0.0916273 17.0243 0.122183 17.938 0.645496C18.8516 1.16881 19.5714 1.97356 19.9901 2.93961L26.4318 17.3205V17.3571C26.7523 18.0966 26.8847 18.904 26.8171 19.7071C26.7495 20.5102 26.484 21.2841 26.0444 21.9596C25.9895 22.0419 25.9316 22.1182 25.8706 22.1944L19.5204 29.7219C21.8049 34.3641 26.6605 39.177 31.3637 41.4676L38.7875 35.151C38.8604 35.0897 38.9368 35.0327 39.0163 34.9802C39.6913 34.53 40.4678 34.2552 41.2757 34.1806C42.0836 34.1061 42.8973 34.2341 43.6432 34.5532L43.6829 34.5715L58.0517 41.0101C59.0194 41.4272 59.8262 42.1465 60.3512 43.0602C60.8762 43.9739 61.0914 45.0331 60.9645 46.0792Z" fill="#0A3F62"/>
</svg>
