<svg width="21" height="21" viewBox="0 0 21 21" fill="none" xmlns="http://www.w3.org/2000/svg">
<path d="M10.5001 0.925H10.5C8.60625 0.925 6.75502 1.48656 5.18042 2.53868C3.60582 3.59079 2.37857 5.0862 1.65386 6.8358C0.929149 8.58541 0.739532 10.5106 1.10899 12.368C1.47844 14.2254 2.39037 15.9315 3.72946 17.2705C5.06854 18.6096 6.77465 19.5216 8.63201 19.891C10.4894 20.2605 12.4146 20.0709 14.1642 19.3461C15.9138 18.6214 17.4092 17.3942 18.4613 15.8196C19.5134 14.245 20.075 12.3938 20.075 10.5V10.4999C20.0723 7.96132 19.0627 5.52745 17.2676 3.73239C15.4725 1.93732 13.0387 0.927681 10.5001 0.925ZM2.53654 10.5001L2.53654 10.4999C2.53593 9.78443 2.63218 9.07221 2.82261 8.38269H6.19207C5.98983 9.78698 5.98983 11.213 6.19207 12.6173H2.82261C2.63218 11.9278 2.53593 11.2156 2.53654 10.5001ZM10.5 18.4172C9.46082 17.2697 8.67392 15.8277 8.19173 14.2288H12.8083C12.3261 15.8277 11.5392 17.2697 10.5 18.4172ZM13.1767 12.6173H7.82329C7.59603 11.2149 7.59603 9.78508 7.82329 8.38269H13.1767C13.404 9.78508 13.404 11.2149 13.1767 12.6173ZM10.5 2.58278C11.5392 3.73034 12.3261 5.17225 12.8083 6.77115H8.19173C8.67392 5.17225 9.46081 3.73034 10.5 2.58278ZM18.1773 12.6173H14.8079C15.0102 11.213 15.0102 9.78698 14.8079 8.38269H18.1773C18.5588 9.76844 18.5588 11.2316 18.1773 12.6173ZM14.4806 6.77115C14.1209 5.38189 13.5352 4.0616 12.7472 2.86305C13.7512 3.1603 14.6877 3.65203 15.5031 4.31092C16.3391 4.98645 17.03 5.82329 17.535 6.77115H14.4806ZM3.46505 6.77115C3.97001 5.82329 4.66093 4.98645 5.49693 4.31092C6.31235 3.65202 7.24884 3.1603 8.25281 2.86304C7.46479 4.0616 6.87907 5.38189 6.51941 6.77115H3.46505ZM6.51941 14.2288C6.87907 15.6181 7.46479 16.9384 8.25281 18.1369C7.24884 17.8397 6.31235 17.348 5.49693 16.6891C4.66093 16.0135 3.97001 15.1767 3.46505 14.2288H6.51941ZM14.4806 14.2288H17.535C17.03 15.1767 16.3391 16.0135 15.5031 16.6891C14.6877 17.348 13.7512 17.8397 12.7472 18.1369C13.5352 16.9384 14.1209 15.6181 14.4806 14.2288Z" fill="white" stroke="white" stroke-width="0.15"/>
</svg>
