<svg width="21" height="22" viewBox="0 0 21 22" fill="none" xmlns="http://www.w3.org/2000/svg">
<path d="M20 10.0484L11.0172 19.2411C9.91678 20.3673 8.42424 21 6.86796 21C5.31168 21 3.81914 20.3673 2.71869 19.2411C1.61823 18.115 1 16.5875 1 14.9949C1 13.4022 1.61823 11.8748 2.71869 10.7486L11.0954 2.17611C11.8291 1.424 12.8246 1.00094 13.863 1C14.9015 0.999064 15.8978 1.42032 16.6327 2.17111C17.3676 2.92189 17.781 3.9407 17.7819 5.00341C17.7828 6.06611 17.3712 7.08567 16.6376 7.83778L8.24128 16.4103C7.87446 16.7857 7.37695 16.9966 6.85819 16.9966C6.33943 16.9966 5.84191 16.7857 5.47509 16.4103C5.10828 16.0349 4.9022 15.5258 4.9022 14.9949C4.9022 14.464 5.10828 13.9549 5.47509 13.5795L13.7736 5.09697" stroke="#0A3F62" stroke-width="2" stroke-linecap="round" stroke-linejoin="round"/>
</svg>
