<svg width="21" height="17" viewBox="0 0 21 17" fill="none" xmlns="http://www.w3.org/2000/svg">
<path d="M16.625 2H3.625C2.72754 2 2 2.72754 2 3.625V13.375C2 14.2725 2.72754 15 3.625 15H16.625C17.5225 15 18.25 14.2725 18.25 13.375V3.625C18.25 2.72754 17.5225 2 16.625 2Z" fill="#0A3F62" stroke="#0A3F62" stroke-width="4" stroke-linecap="round" stroke-linejoin="round"/>
<path d="M18.25 4.4375L10.9619 9.84422C10.711 10.0277 10.421 10.125 10.125 10.125C9.82899 10.125 9.53897 10.0277 9.28813 9.84422L2 4.4375" fill="#0A3F62"/>
<path d="M18.25 4.4375L10.9619 9.84422C10.711 10.0277 10.421 10.125 10.125 10.125C9.82899 10.125 9.53897 10.0277 9.28813 9.84422L2 4.4375" stroke="#F7F7F7" stroke-width="2" stroke-linecap="round" stroke-linejoin="round"/>
</svg>
