<svg width="26" height="26" viewBox="0 0 26 26" fill="none" xmlns="http://www.w3.org/2000/svg">
<path d="M18.4165 2.1665H7.58317C4.59163 2.1665 2.1665 4.59163 2.1665 7.58317V18.4165C2.1665 21.408 4.59163 23.8332 7.58317 23.8332H18.4165C21.408 23.8332 23.8332 21.408 23.8332 18.4165V7.58317C23.8332 4.59163 21.408 2.1665 18.4165 2.1665Z" fill="#0A3F62"/>
<path d="M17.3332 12.3173C17.4669 13.2189 17.3129 14.1397 16.8931 14.9488C16.4733 15.7578 15.8091 16.4139 14.9949 16.8237C14.1808 17.2334 13.2582 17.3761 12.3583 17.2313C11.4584 17.0865 10.6271 16.6616 9.98259 16.0171C9.33809 15.3726 8.91322 14.5413 8.76842 13.6414C8.62362 12.7415 8.76625 11.8189 9.17603 11.0047C9.58582 10.1906 10.2419 9.52639 11.0509 9.1066C11.8599 8.68681 12.7807 8.53281 13.6823 8.66651C14.602 8.80288 15.4534 9.23142 16.1108 9.88884C16.7683 10.5463 17.1968 11.3977 17.3332 12.3173Z" fill="white"/>
<path d="M18.9585 7.0415H18.9693" stroke="white" stroke-width="4" stroke-linecap="round" stroke-linejoin="round"/>
</svg>
