<svg width="22" height="22" viewBox="0 0 22 22" fill="none" xmlns="http://www.w3.org/2000/svg">
<rect width="22" height="22" rx="4" fill="#0A3F62"/>
<path d="M14.0992 8.8999C15.1336 8.8999 16.1255 9.31079 16.8569 10.0422C17.5883 10.7736 17.9992 11.7656 17.9992 12.7999V17.3499H15.3992V12.7999C15.3992 12.4551 15.2623 12.1245 15.0185 11.8807C14.7747 11.6369 14.444 11.4999 14.0992 11.4999C13.7544 11.4999 13.4238 11.6369 13.18 11.8807C12.9362 12.1245 12.7992 12.4551 12.7992 12.7999V17.3499H10.1992V12.7999C10.1992 11.7656 10.6101 10.7736 11.3415 10.0422C12.0729 9.31079 13.0649 8.8999 14.0992 8.8999Z" fill="white" stroke="white" stroke-linecap="round" stroke-linejoin="round"/>
<path d="M7.6 9.5498H5V17.3498H7.6V9.5498Z" fill="white" stroke="white" stroke-linecap="round" stroke-linejoin="round"/>
<path d="M6.3 7.6C7.01797 7.6 7.6 7.01797 7.6 6.3C7.6 5.58203 7.01797 5 6.3 5C5.58203 5 5 5.58203 5 6.3C5 7.01797 5.58203 7.6 6.3 7.6Z" fill="white" stroke="white" stroke-linecap="round" stroke-linejoin="round"/>
</svg>
