<svg width="28" height="21" viewBox="0 0 28 21" fill="none" xmlns="http://www.w3.org/2000/svg">
<path d="M1.67949 16.6489C0.773505 12.3734 0.773505 7.95543 1.67949 3.67991C1.79853 3.24573 2.02853 2.85 2.34688 2.53165C2.66523 2.2133 3.06095 1.9833 3.49514 1.86426C10.451 0.711914 17.549 0.711914 24.5049 1.86426C24.939 1.9833 25.3348 2.2133 25.6531 2.53165C25.9715 2.85 26.2015 3.24573 26.3205 3.67991C27.2265 7.95543 27.2265 12.3734 26.3205 16.6489C26.2015 17.0831 25.9715 17.4788 25.6531 17.7971C25.3348 18.1155 24.939 18.3455 24.5049 18.4645C17.549 19.6171 10.451 19.6171 3.49514 18.4645C3.06095 18.3455 2.66523 18.1155 2.34688 17.7971C2.02853 17.4788 1.79853 17.0831 1.67949 16.6489Z" fill="#0A3F62" stroke="#0A3F62" stroke-width="2" stroke-linecap="round" stroke-linejoin="round"/>
<path d="M11.4062 14.0553L17.8907 10.1646L11.4062 6.27393V14.0553Z" fill="white" stroke="white" stroke-width="2" stroke-linecap="round" stroke-linejoin="round"/>
</svg>
